<?xml version="1.0" encoding="UTF-8"?>
<svg version="1.1" xmlns="http://www.w3.org/2000/svg" width="3763" height="1280">
<path d="M0 0 C1241.79 0 2483.58 0 3763 0 C3763 422.4 3763 844.8 3763 1280 C2521.21 1280 1279.42 1280 0 1280 C0 857.6 0 435.2 0 0 Z " fill="#FEFEFE" transform="translate(0,0)"/>
<path d="M0 0 C0 18.15 0 36.3 0 55 C-4.29 54.67 -8.58 54.34 -13 54 C-23.47735813 53.21772321 -33.93814163 52.74217166 -44.4375 52.4375 C-45.86263774 52.39412695 -47.28776802 52.35050811 -48.71289062 52.30664062 C-52.14184633 52.20161157 -55.57088897 52.09984585 -59 52 C-58.43700195 52.92071289 -57.87400391 53.84142578 -57.29394531 54.79003906 C-47.98854741 70.15839213 -44.82335629 84.41047626 -44.8125 102.3125 C-44.80025391 103.36373047 -44.78800781 104.41496094 -44.77539062 105.49804688 C-44.73308597 128.44127361 -53.55188973 147.92340829 -69.29296875 164.4140625 C-89.20441016 183.43480451 -115.78508515 193.71306231 -142.93164062 196.76611328 C-144.93653922 196.99282396 -146.9354105 197.27099591 -148.93359375 197.55078125 C-156.45836105 198.367793 -164.06439512 198.24188077 -171.625 198.25 C-172.44414886 198.25167175 -173.26329773 198.25334351 -174.10726929 198.25506592 C-190.39348907 198.25705483 -206.19201078 197.11180485 -222 193 C-227.53565068 192.03727814 -230.99581912 194.31385883 -235.53125 197.23046875 C-241.75670377 201.69270065 -246.50480274 206.26807905 -248 214 C-248.61532015 220.08386969 -249.00171801 226.05670128 -245 231 C-238.09317492 235.47055521 -231.56539809 237.12043178 -223.3730011 237.13130188 C-221.72791313 237.13731415 -221.72791313 237.13731415 -220.04959106 237.14344788 C-218.86058197 237.14291916 -217.67157288 237.14239044 -216.4465332 237.1418457 C-214.50503976 237.14718035 -212.56354632 237.15252097 -210.6220535 237.15808237 C-208.53957789 237.16326876 -206.45710856 237.16619012 -204.37462807 237.16866493 C-200.00225071 237.17462082 -195.62995288 237.19121196 -191.25761414 237.21000671 C-189.7532435 237.21634445 -188.24887281 237.22267007 -186.74450207 237.22898388 C-185.61413401 237.2337326 -185.61413401 237.2337326 -184.46093023 237.23857725 C-174.29338568 237.28038979 -164.12587657 237.31350519 -153.95825195 237.32592773 C-147.08766418 237.33440789 -140.21727279 237.35726742 -133.34678334 237.3952834 C-129.72696814 237.41473595 -126.10744426 237.42755508 -122.48757362 237.42244911 C-87.61675671 237.38294049 -48.80472892 239.90621122 -22 265 C-8.39537386 279.12244929 -4.51293161 296.38657606 -4.64624023 315.40527344 C-5.19120307 339.11988416 -14.26217763 360.26217763 -31 377 C-42.92382106 388.04210581 -57.13125041 395.64762342 -72 402 C-72.72380859 402.31372559 -73.44761719 402.62745117 -74.19335938 402.95068359 C-80.66474679 405.66344995 -87.18442859 407.49030077 -94 409.125 C-95.01578125 409.37636719 -96.0315625 409.62773438 -97.078125 409.88671875 C-122.03583401 415.99815775 -146.5715878 416.35074965 -172.13525391 416.31567383 C-175.78446804 416.31104882 -179.4333484 416.31795132 -183.08251953 416.33618164 C-226.06555191 416.54898761 -280.04694863 416.77468252 -314 386 C-316.7718473 382.86224881 -318.95188052 379.64553858 -321 376 C-321.64775391 374.93458984 -321.64775391 374.93458984 -322.30859375 373.84765625 C-325.24487738 368.06653034 -325.37755047 362.29680668 -325.4375 355.9375 C-325.44773193 355.09848145 -325.45796387 354.25946289 -325.46850586 353.39501953 C-325.31173729 342.2019631 -321.0484014 333.15227351 -313.5 325 C-302.3901948 314.38951189 -287.45968206 308.48748754 -273 304 C-275.85867967 301.82320723 -278.78122262 299.77330688 -281.75 297.75 C-294.12215771 289.02953641 -303.17927039 278.58916235 -306.58203125 263.40234375 C-308.13114431 250.79227389 -308.799338 236.56405308 -303 225 C-302.53722656 224.03578125 -302.07445313 223.0715625 -301.59765625 222.078125 C-291.65411692 203.30939061 -272.77669317 188.35619054 -253 181 C-253.88300781 180.39414062 -254.76601562 179.78828125 -255.67578125 179.1640625 C-275.58298841 165.34247825 -290.75202443 148.93590641 -297 125 C-297.30550781 123.88625 -297.30550781 123.88625 -297.6171875 122.75 C-302.86476093 99.74693837 -298.27941616 73.98269218 -286.05859375 54.03515625 C-268.29928676 27.85113058 -240.33136841 13.77663636 -209.88476562 7.53564453 C-197.04061384 5.15073686 -184.52778896 4.59357584 -171.5 4.625 C-170.57246918 4.6262085 -169.64493835 4.62741699 -168.68930054 4.62866211 C-137.03442585 4.74050354 -102.17379586 11.27076981 -77.49609375 32.8203125 C-76.05579086 34.20639295 -76.05579086 34.20639295 -74 34 C-72.73330362 32.54894875 -71.53660763 31.03646906 -70.375 29.5 C-58.91762481 14.95873238 -44.92246621 4.54507681 -26.5625 0.75 C-17.76209024 -0.25576112 -8.85769538 0 0 0 Z " fill="#010101" transform="translate(2764,534)"/>
<path d="M0 0 C2.68286755 0.00316319 5.36463041 -0.02042867 8.04736328 -0.0456543 C23.62577049 -0.10148386 38.92267897 1.56475985 53.81689453 6.31567383 C54.44321777 6.50468262 55.06954102 6.69369141 55.71484375 6.88842773 C90.9382027 17.53658768 122.1181336 38.54935881 139.87548828 71.53051758 C145.06863357 81.5181478 149.60620484 91.65907764 152.69189453 102.50317383 C152.88291748 103.16607422 153.07394043 103.82897461 153.27075195 104.51196289 C156.59489192 117.0728401 157.16749636 129.8357669 157.13256836 142.7487793 C157.12940621 145.18168971 157.15298857 147.61338083 157.17822266 150.04614258 C157.30473082 181.27887968 146.47880088 213.59564851 125.81689453 237.31567383 C124.75148438 238.5628418 124.75148438 238.5628418 123.66455078 239.83520508 C96.72832058 270.65328216 56.96552407 285.42812643 16.81689453 288.31567383 C-28.12988553 290.33939354 -74.86264738 281.67014111 -109.14648438 250.5324707 C-133.59467931 227.70409206 -151.50132383 196.3369114 -153.29011536 162.27819824 C-153.34626713 160.16004 -153.37340927 158.04390976 -153.38623047 155.92504883 C-153.39324478 155.14660614 -153.40025909 154.36816345 -153.40748596 153.56613159 C-153.42490237 151.06591959 -153.43133843 148.56594427 -153.43310547 146.06567383 C-153.43378021 145.21285828 -153.43445496 144.36004272 -153.43515015 143.48138428 C-153.38910887 106.90740122 -143.33039202 73.59713705 -118.18310547 46.31567383 C-117.7206543 45.80407715 -117.25820312 45.29248047 -116.78173828 44.76538086 C-98.01622817 24.17816674 -71.98235693 11.61156195 -45.37060547 4.62817383 C-44.61320068 4.42530762 -43.8557959 4.22244141 -43.07543945 4.01342773 C-28.9266353 0.49350285 -14.50843678 -0.0355922 0 0 Z " fill="#010101" transform="translate(1180.18310546875,538.684326171875)"/>
<path d="M0 0 C41.58 0 83.16 0 126 0 C126.33 53.13 126.66 106.26 127 161 C132.94 154.07 132.94 154.07 139 147 C166.06768325 122.07629166 195.77990908 115.66287925 232 117 C253.06565996 118.42558019 272.51308698 128.75551275 286.8671875 143.98046875 C300.15074223 159.80442681 307.11110821 180.93230587 307.13130188 201.45181274 C307.13447545 202.52742496 307.13447545 202.52742496 307.13771313 203.62476671 C307.14366929 206.00978855 307.14271616 208.39475682 307.1418457 210.77978516 C307.14487997 212.49682199 307.14840216 214.21385802 307.15237427 215.93089294 C307.16024067 219.61945306 307.16539952 223.3080036 307.16866493 226.99657059 C307.17458973 232.82899161 307.19114205 238.6613521 307.21000671 244.4937439 C307.21634326 246.49241825 307.22266889 248.49109265 307.22898388 250.48976707 C307.23214969 251.49036116 307.2353155 252.49095525 307.23857725 253.52187037 C307.2806307 267.09432238 307.31365349 280.66674492 307.32592773 294.23925781 C307.33430086 303.40407508 307.35675815 312.56874111 307.3952834 321.73348272 C307.41505839 326.58105623 307.42744358 331.42840361 307.42244911 336.27602005 C307.417812 340.83160635 307.4315565 345.386763 307.45946121 349.94226265 C307.46638702 351.61398852 307.46648463 353.28575868 307.45926094 354.95748329 C307.45039524 357.23955364 307.46602671 359.52019995 307.48774719 361.80215454 C307.49013555 363.07896402 307.4925239 364.35577351 307.49498463 365.67127419 C308.09033145 369.59540489 309.22769048 371.21238167 312 374 C318.63770448 377.98262269 326.45531858 378.1320278 334 379 C334 385.6 334 392.2 334 399 C284.83 399 235.66 399 185 399 C185 392.07 185 385.14 185 378 C195.25 377.0625 195.25 377.0625 198.46191406 376.77368164 C199.30463867 376.69496826 200.14736328 376.61625488 201.015625 376.53515625 C201.87446289 376.456604 202.73330078 376.37805176 203.61816406 376.29711914 C205.81938339 376.02253079 207.8569734 375.55734307 210 375 C209.93939508 350.82540135 209.86184539 326.650908 209.76428509 302.47642899 C209.71937551 291.25105988 209.67994969 280.02572216 209.65356445 268.80029297 C209.6305452 259.01287721 209.59710332 249.22556117 209.55129844 239.43822455 C209.52741921 234.25893422 209.50865572 229.07974233 209.50238609 223.90039825 C209.49631124 219.01827117 209.47622507 214.13639578 209.44572449 209.25436211 C209.43698261 207.46948181 209.43321363 205.68456856 209.43499184 203.89966774 C209.44447324 189.98221081 208.58525064 176.78033418 199.9375 165.25 C191.64765822 158.90033396 182.16749606 157.88419416 172 159 C154.23853817 162.85084069 141.99225328 174.41276894 132 189 C131.5773993 189.48078601 131.1547986 189.96157202 130.71939182 190.4569273 C125.31763423 197.34341898 126.306311 205.72353773 126.36889648 214.0168457 C126.36375358 215.74713371 126.35646951 217.47741648 126.34721375 219.20768738 C126.32874561 223.88928248 126.34160641 228.57030598 126.36130404 233.25187707 C126.37771668 238.15386103 126.36887462 243.05580956 126.36378479 247.95780945 C126.3592689 256.18331009 126.3751077 264.40858293 126.40307617 272.6340332 C126.43517905 282.14889084 126.43509013 291.6633389 126.4178614 301.17822582 C126.40201435 310.33315064 126.40871466 319.48792503 126.42579842 328.64284325 C126.4326775 332.53955264 126.43162787 336.43614176 126.42425346 340.3328495 C126.41660815 344.91553901 126.42865891 349.49776037 126.45610237 354.08036995 C126.46300377 355.76422485 126.46306545 357.44812334 126.45588684 359.13197708 C126.44723297 361.42565468 126.46307608 363.7178736 126.4853363 366.01142883 C126.48814322 367.29615743 126.49095015 368.58088602 126.49384212 369.90454578 C126.70604252 373.05226153 126.70604252 373.05226153 128.80951023 374.8664732 C135.37378264 378.26332938 142.7685543 378.45764157 150 379 C150 385.6 150 392.2 150 399 C100.5 399 51 399 0 399 C0 392.07 0 385.14 0 378 C2.124375 377.896875 4.24875 377.79375 6.4375 377.6875 C16.7572833 377.12270041 16.7572833 377.12270041 25.08495331 371.75725555 C28.34739902 366.66559806 27.54871905 360.5005739 27.50793457 354.67687988 C27.51254527 353.30241247 27.51889932 351.92794998 27.52684355 350.55349779 C27.54353715 346.781779 27.53529059 343.0104652 27.52289867 339.23874497 C27.51385055 335.16914012 27.52781672 331.09960504 27.53881836 327.03001404 C27.55661074 319.05975633 27.55276042 311.08964923 27.5411678 303.1193856 C27.53213657 296.64216429 27.53090813 290.1649852 27.53526306 283.6877594 C27.53587599 282.76610938 27.53648893 281.84445937 27.53712043 280.89488056 C27.53839932 279.02260314 27.53969618 277.15032573 27.5410108 275.27804834 C27.5524187 257.71908411 27.53929959 240.16020339 27.51780933 222.60125285 C27.49993816 207.53279211 27.50304221 192.46445462 27.52148438 177.39599609 C27.54288737 159.90013776 27.55132004 142.40435263 27.53903532 124.90848303 C27.53776112 123.0430689 27.53650363 121.17765475 27.53526306 119.3122406 C27.53464596 118.39440608 27.53402886 117.47657156 27.53339306 116.53092387 C27.52993844 110.06100841 27.5357709 103.59113936 27.54518127 97.12123108 C27.5563963 89.23722439 27.5533717 81.35337702 27.5320583 73.4693886 C27.52154114 69.44633504 27.51743724 65.42354716 27.53065491 61.40049553 C27.5425711 57.71789322 27.53602958 54.03580294 27.5147447 50.35324711 C27.50815742 48.38955171 27.52122173 46.42582079 27.53497362 44.46216249 C27.46306856 35.93247365 27.46306856 35.93247365 23 29 C16.58001042 24.33946363 7.55405137 23.46680609 0 22 C0 14.74 0 7.48 0 0 Z " fill="#000000" transform="translate(670,422)"/>
<path d="M0 0 C15.90764487 12.8701615 24.90961217 34.51426247 27.734375 54.35546875 C27.82645955 56.80619227 27.86752104 59.25908454 27.87240601 61.71153259 C27.87522729 62.4304254 27.87804857 63.1493182 27.88095534 63.88999563 C27.88925624 66.28727055 27.89063568 68.68449902 27.89208984 71.08178711 C27.89676128 72.8052839 27.90190539 74.52877947 27.90748596 76.25227356 C27.91874383 79.95830608 27.92718902 83.66433067 27.93360519 87.37037468 C27.94430621 93.23266958 27.96455561 99.09490722 27.98672485 104.95716858 C28.04858196 121.62530907 28.10267909 138.29344556 28.13574219 154.96166992 C28.15409077 164.17152621 28.18302612 173.38128591 28.2237469 182.59107119 C28.24480572 187.4621612 28.26027266 192.33312957 28.26255417 197.2042675 C28.26470248 201.78522903 28.28059057 206.36593695 28.30694389 210.94682121 C28.31413021 212.62576906 28.31624109 214.30474765 28.31284142 215.98370743 C28.30893468 218.28024404 28.32343892 220.5759754 28.34237671 222.87242126 C28.34734193 224.79787985 28.34734193 224.79787985 28.35240746 226.7622366 C28.80192332 230.99090705 29.75738571 233.60250331 31.734375 237.35546875 C37.30817792 240.91321529 42.484047 241.49665119 48.984375 241.91796875 C51.211875 242.06234375 53.439375 242.20671875 55.734375 242.35546875 C55.734375 249.28546875 55.734375 256.21546875 55.734375 263.35546875 C6.234375 263.35546875 -43.265625 263.35546875 -94.265625 263.35546875 C-94.265625 256.42546875 -94.265625 249.49546875 -94.265625 242.35546875 C-90.65234375 242.16015625 -87.0390625 241.96484375 -83.42578125 241.76953125 C-80.3735069 241.53441739 -77.48876445 241.01495665 -74.50561523 240.32958984 C-73.70784164 240.14770111 -72.91006805 239.96581238 -72.08811951 239.77841187 C-71.48669632 239.63884064 -70.88527313 239.49926941 -70.265625 239.35546875 C-70.17204391 214.80710297 -70.10157833 190.25876406 -70.05837631 165.71025562 C-70.03778068 154.31108945 -70.00971749 142.91203433 -69.96386719 131.51293945 C-69.92390754 121.57358574 -69.8981704 111.63431248 -69.88927102 101.69488066 C-69.88407173 96.43554735 -69.87191421 91.17644415 -69.84270477 85.91718483 C-69.81539133 80.95875249 -69.807212 76.0006433 -69.81319427 71.04214287 C-69.81210113 69.2302334 -69.80424273 67.41831221 -69.7888031 65.6064682 C-69.6851977 52.81203446 -70.1111125 40.16996362 -78.765625 29.87109375 C-84.27912777 24.30015866 -91.73824742 23.0583691 -99.328125 22.91796875 C-115.55465385 23.1902797 -127.96926763 31.28677761 -138.98828125 42.64453125 C-145.55906625 50.46635765 -152.39322868 58.92387015 -152.38587952 69.31558228 C-152.38673394 70.04007989 -152.38758837 70.76457751 -152.38846868 71.5110296 C-152.39012239 73.95089996 -152.38460389 76.39070233 -152.37915039 78.83056641 C-152.37886847 80.57468158 -152.37902635 82.31879688 -152.3795929 84.06291199 C-152.37988068 88.8085203 -152.37398704 93.55410352 -152.36701894 98.29970598 C-152.36078221 103.25517177 -152.36018135 108.21063808 -152.35899353 113.16610718 C-152.35588116 122.55481907 -152.34766903 131.94351937 -152.33764404 141.33222616 C-152.32647999 152.01888747 -152.32097172 162.70554933 -152.31594861 173.39221501 C-152.30548635 195.37997274 -152.28788872 217.36772002 -152.265625 239.35546875 C-150.85301422 239.68329087 -149.43950304 240.00723434 -148.02563477 240.32958984 C-146.84506248 240.60082169 -146.84506248 240.60082169 -145.64064026 240.87753296 C-142.15007779 241.5799557 -138.76049443 241.78817851 -135.203125 241.98046875 C-132.91375 242.10421875 -130.624375 242.22796875 -128.265625 242.35546875 C-128.265625 249.28546875 -128.265625 256.21546875 -128.265625 263.35546875 C-177.765625 263.35546875 -227.265625 263.35546875 -278.265625 263.35546875 C-278.265625 256.42546875 -278.265625 249.49546875 -278.265625 242.35546875 C-275.955625 242.27296875 -273.645625 242.19046875 -271.265625 242.10546875 C-264.26913002 241.72037516 -258.83239866 240.75758995 -253.58715057 235.7544775 C-251.63321771 232.20743903 -251.84549405 228.73098241 -251.87121582 224.78382874 C-251.86512472 223.91005866 -251.85903361 223.03628858 -251.85275793 222.13604063 C-251.83608362 219.2026229 -251.84091006 216.26963714 -251.84570312 213.33618164 C-251.8383654 211.23535204 -251.82978004 209.13452649 -251.82003784 207.03370667 C-251.79778263 201.32301056 -251.79489315 195.61245857 -251.79678535 189.90172505 C-251.79690486 185.13760829 -251.78834876 180.37352227 -251.78000784 175.60941404 C-251.76075954 164.37215695 -251.75789525 153.13497414 -251.76464844 141.89770508 C-251.77129153 130.29713734 -251.74841713 118.69688738 -251.71133471 107.09638411 C-251.68066955 97.14299814 -251.66927419 87.18971457 -251.67317152 77.23628229 C-251.6752422 71.28868605 -251.6697103 65.34133708 -251.64527893 59.39378548 C-251.62306694 53.80159924 -251.62484362 48.20993084 -251.64520645 42.61774254 C-251.64862625 40.56382472 -251.6434859 38.50987242 -251.62922287 36.45600128 C-251.61111004 33.6547562 -251.62371983 30.85528281 -251.64416504 28.05409241 C-251.63164719 27.23872216 -251.61912934 26.42335191 -251.60623217 25.58327347 C-251.66961326 21.54087816 -252.05828638 19.61745225 -254.59792328 16.40848446 C-257.68094665 14.03584461 -260.45760065 12.84657542 -264.140625 11.60546875 C-265.31367188 11.198125 -266.48671875 10.79078125 -267.6953125 10.37109375 C-271.78672381 9.12050908 -271.78672381 9.12050908 -278.265625 8.35546875 C-278.265625 1.09546875 -278.265625 -6.16453125 -278.265625 -13.64453125 C-238.995625 -13.64453125 -199.725625 -13.64453125 -159.265625 -13.64453125 C-158.935625 2.52546875 -158.605625 18.69546875 -158.265625 35.35546875 C-155.295625 31.06546875 -152.325625 26.77546875 -149.265625 22.35546875 C-113.30890525 -21.50119609 -47.07195634 -34.16774762 0 0 Z " fill="#000000" transform="translate(3366.265625,557.64453125)"/>
<path d="M0 0 C1.0828125 0.53625 2.165625 1.0725 3.28125 1.625 C21.27722181 11.27232509 31.6706783 28.17484702 38 47 C40.72903217 56.12888015 42.12185557 65.00073459 42.13130188 74.52737427 C42.13447545 75.59708444 42.13447545 75.59708444 42.13771313 76.68840492 C42.14365688 79.05416735 42.14271707 81.41987559 42.1418457 83.78564453 C42.14488079 85.49135426 42.14840321 87.19706319 42.15237427 88.902771 C42.16023426 92.56402805 42.16539708 96.22527549 42.16866493 99.88653946 C42.17459558 105.67730921 42.19115329 111.46801818 42.21000671 117.25875854 C42.21634307 119.24410435 42.22266871 121.22945019 42.22898388 123.21479607 C42.23214969 124.20864492 42.2353155 125.20249378 42.23857725 126.22645926 C42.28061184 139.69962772 42.31365287 153.17276634 42.32592773 166.64599609 C42.33430429 175.747106 42.35677359 184.84806374 42.3952834 193.94909751 C42.41504535 198.76147683 42.42744785 203.57362868 42.42244911 208.38605118 C42.41780764 212.90882381 42.43158045 217.43116429 42.45946121 221.95384979 C42.46637942 223.61225593 42.46649276 225.27070668 42.45926094 226.92911148 C42.45037658 229.19545278 42.46605688 231.46036748 42.48774719 233.72659302 C42.49013555 234.99380754 42.4925239 236.26102207 42.49498463 237.56663704 C43.09731954 241.66162994 44.39969721 243.81175387 47 247 C52.11299838 249.90666211 56.70560715 250.50256162 62.4375 250.6875 C64.933125 250.790625 67.42875 250.89375 70 251 C70 257.93 70 264.86 70 272 C20.5 272 -29 272 -80 272 C-80 265.07 -80 258.14 -80 251 C-72 250.625 -72 250.625 -69.53125 250.52197266 C-68.8609375 250.4863623 -68.190625 250.45075195 -67.5 250.4140625 C-66.49453125 250.36693115 -66.49453125 250.36693115 -65.46875 250.31884766 C-63.18356607 250.0237082 -61.07556748 249.54834981 -58.84570312 248.98007202 C-57.57662109 248.65664825 -56.30753906 248.33322449 -55 248 C-55.06060394 223.69501794 -55.13815294 199.39014062 -55.23571491 175.08527756 C-55.28062518 163.79937424 -55.32005085 152.51350215 -55.34643555 141.22753906 C-55.36945424 131.3873859 -55.40289549 121.54733194 -55.44870156 111.70725751 C-55.47258155 106.50002158 -55.49134454 101.29288357 -55.49761391 96.08559418 C-55.50368841 91.17720286 -55.52377336 86.26906193 -55.55427551 81.36076355 C-55.56301794 79.56620781 -55.56678625 77.7716193 -55.56500816 75.97704315 C-55.55578415 62.36321887 -56.02290992 49.10047672 -65 38 C-71.99152613 32.08532962 -80.62349364 31.53380497 -89.375 31.69140625 C-106.30296528 33.13247226 -118.84364834 44.24905832 -129.39721942 56.64054692 C-137.7054428 66.89091654 -139.43190504 75.08104255 -139.13525391 88.04272461 C-139.13242571 89.79860776 -139.13403102 91.55450269 -139.13967896 93.31037903 C-139.14252236 98.02941294 -139.08416407 102.74585152 -139.01393938 107.46428752 C-138.95098535 112.41286742 -138.94551776 117.36152149 -138.9336853 122.31044006 C-138.90273191 131.6603234 -138.82084755 141.00902302 -138.72019041 150.35838753 C-138.60801384 161.0113272 -138.55333354 171.66432651 -138.50323606 182.31771076 C-138.39900069 204.21246523 -138.22336197 226.10615773 -138 248 C-136.58244768 248.32163001 -135.16447737 248.64141806 -133.74633789 248.96044922 C-132.56195885 249.2278743 -132.56195885 249.2278743 -131.35365295 249.5007019 C-128.06728636 250.19786356 -124.76551274 250.67264875 -121.4375 251.125 C-118.2509375 251.558125 -118.2509375 251.558125 -115 252 C-115 258.6 -115 265.2 -115 272 C-164.17 272 -213.34 272 -264 272 C-264 265.4 -264 258.8 -264 252 C-255.875 250.6875 -255.875 250.6875 -253.35107422 250.2956543 C-248.80003311 249.52520246 -244.89443096 248.61747363 -241 246 C-237.81866847 241.02482826 -237.56778568 236.96864151 -237.60559082 231.26377869 C-237.59949972 230.39646687 -237.59340861 229.52915505 -237.58713293 228.63556105 C-237.57051413 225.73599202 -237.57527711 222.83686265 -237.58007812 219.93725586 C-237.57273731 217.85583541 -237.56415104 215.77441904 -237.55441284 213.69300842 C-237.53219348 208.04441177 -237.52926625 202.39596097 -237.53116035 196.74732661 C-237.53128 192.03281595 -237.52271873 187.31833626 -237.51438284 182.60383421 C-237.49514854 171.48448501 -237.49226562 160.36521089 -237.49902344 149.24584961 C-237.50566989 137.76907099 -237.48277544 126.2926133 -237.44570971 114.81589979 C-237.41504554 104.9643833 -237.40364895 95.11297024 -237.40754652 85.26140696 C-237.4096168 79.37643774 -237.404091 73.49171844 -237.37965393 67.60679436 C-237.35744275 62.07531713 -237.35921789 56.54436344 -237.37958145 51.01288414 C-237.38300107 48.98154039 -237.37786167 46.95016176 -237.36359787 44.9188652 C-237.34548363 42.14837392 -237.35809559 39.3796737 -237.37854004 36.60923767 C-237.36602219 35.80301356 -237.35350434 34.99678944 -237.34060717 34.1661343 C-237.40514181 30.09499332 -237.79881441 28.24833698 -240.39577484 25.04273319 C-246.68158944 20.11219096 -254.0762739 18.56078358 -261.84765625 17.39453125 C-264 17 -264 17 -265 16 C-265 9.07 -265 2.14 -265 -5 C-225.4 -5 -185.8 -5 -145 -5 C-144.67 10.84 -144.34 26.68 -144 43 C-141.36 39.37 -138.72 35.74 -136 32 C-121.11320989 12.8568752 -101.66916327 -0.92059163 -78 -7 C-76.89140625 -7.30035156 -75.7828125 -7.60070312 -74.640625 -7.91015625 C-49.78926328 -13.64303476 -22.72517014 -11.53363474 0 0 Z " fill="#000000" transform="translate(2359,549)"/>
<path d="M0 0 C3.74319229 3.39984192 7.00053608 7.01508286 10.1875 10.9375 C12.34829273 4.4644759 13.01443251 -2.04839259 13.75 -8.8125 C13.99846535 -11.05760742 14.24964085 -13.30241705 14.50390625 -15.546875 C14.61162354 -16.53397461 14.71934082 -17.52107422 14.83032227 -18.53808594 C15.1875 -21.0625 15.1875 -21.0625 16.1875 -24.0625 C24.7675 -24.0625 33.3475 -24.0625 42.1875 -24.0625 C42.1875 8.2775 42.1875 40.6175 42.1875 73.9375 C33.6075 73.9375 25.0275 73.9375 16.1875 73.9375 C15.341875 71.565625 14.49625 69.19375 13.625 66.75 C3.96768733 40.62535479 -14.08910168 18.56653593 -39.27734375 6.2421875 C-61.75694395 -3.47212399 -88.61652936 -6.13420637 -111.81787109 2.70117188 C-124.36271352 7.95733796 -133.3323616 15.17768088 -138.63061523 27.90234375 C-140.79052419 33.7185189 -141.32165149 39.01182391 -141.25 45.1875 C-141.24242676 46.1062793 -141.23485352 47.02505859 -141.22705078 47.97167969 C-140.93030557 60.29635305 -137.53369682 70.60385768 -129.140625 79.76171875 C-109.98044519 97.98026579 -79.16006939 105.49837952 -54.1875 111.25 C-31.91778397 116.46155302 -9.17198245 124.53995966 11.1875 134.9375 C11.89841797 135.29908203 12.60933594 135.66066406 13.34179688 136.03320312 C38.35691067 148.96261928 59.16424643 168.55128998 68 195.9375 C71.17009419 208.71898938 72.7097895 220.74519283 72.5625 233.875 C72.55784729 234.61862793 72.55319458 235.36225586 72.54840088 236.12841797 C72.31444497 268.05611566 62.21336894 297.1927493 40.29296875 320.86328125 C10.03858979 350.66861562 -31.74318216 360.35819323 -72.94189453 360.17163086 C-108.15951049 359.69382402 -143.6738653 350.26987457 -170.8125 326.9375 C-171.70066406 326.19886719 -172.58882813 325.46023438 -173.50390625 324.69921875 C-179.02973859 319.94953385 -183.6165716 314.76848736 -188.09765625 309.02734375 C-188.94650391 307.99287109 -188.94650391 307.99287109 -189.8125 306.9375 C-190.1425 306.9375 -190.4725 306.9375 -190.8125 306.9375 C-190.87291977 307.48207352 -190.93333954 308.02664703 -190.99559021 308.58772278 C-191.6243989 314.24943637 -192.25776664 319.91062664 -192.89379883 325.5715332 C-193.13064965 327.68500877 -193.36633293 329.79861551 -193.60083008 331.91235352 C-193.93785536 334.9484312 -194.2790599 337.98401425 -194.62109375 341.01953125 C-194.72530136 341.96649368 -194.82950897 342.91345612 -194.93687439 343.88911438 C-195.03690262 344.76980087 -195.13693085 345.65048737 -195.23999023 346.55786133 C-195.32659409 347.33285477 -195.41319794 348.10784821 -195.50242615 348.90632629 C-195.8125 350.9375 -195.8125 350.9375 -196.8125 353.9375 C-205.7225 353.9375 -214.6325 353.9375 -223.8125 353.9375 C-223.8125 315.9875 -223.8125 278.0375 -223.8125 238.9375 C-214.2425 238.9375 -204.6725 238.9375 -194.8125 238.9375 C-193.6575 241.9075 -192.5025 244.8775 -191.3125 247.9375 C-183.79481216 266.85302248 -175.00168072 283.10109349 -160.8125 297.9375 C-160.13960938 298.68515625 -159.46671875 299.4328125 -158.7734375 300.203125 C-140.94626699 319.29889566 -113.55956101 330.07617822 -87.79956055 331.14453125 C-84.32319842 331.2438581 -80.84896639 331.26401256 -77.37133789 331.25317383 C-75.24769434 331.24999655 -73.12542794 331.27365631 -71.00195312 331.29882812 C-62.26551627 331.33938356 -54.24658775 330.35288203 -45.8125 327.9375 C-45.10504639 327.74406006 -44.39759277 327.55062012 -43.66870117 327.35131836 C-30.04696673 323.42484741 -19.71719975 316.09432631 -12.5703125 303.80078125 C-6.01095073 291.23266108 -4.73364067 275.37931342 -7.49609375 261.50390625 C-8.41293448 258.82186178 -9.46383765 256.42831078 -10.8125 253.9375 C-11.43125 252.77927734 -11.43125 252.77927734 -12.0625 251.59765625 C-21.15232764 236.49098247 -37.97697513 228.27880365 -53.94140625 222.26953125 C-54.82601532 221.93467712 -55.71062439 221.599823 -56.62203979 221.25482178 C-64.64541926 218.27285218 -72.76770532 215.60635363 -80.9140625 212.984375 C-81.58042662 212.7696863 -82.24679073 212.5549976 -82.9333477 212.33380318 C-89.14632271 210.333891 -95.36195289 208.3424345 -101.58544922 206.37548828 C-126.35217952 198.53724592 -151.46755512 190.16470038 -172.8125 174.9375 C-173.39128906 174.52790039 -173.97007812 174.11830078 -174.56640625 173.69628906 C-197.70669359 157.11759327 -213.09069191 134.16724012 -218.15063477 106.07250977 C-223.01063036 76.45448087 -219.64583842 46.19788235 -201.9375 21.1875 C-184.05008551 -2.27253208 -160.4633799 -18.00776073 -131.8125 -25.0625 C-130.93078125 -25.33578125 -130.0490625 -25.6090625 -129.140625 -25.890625 C-86.55904128 -39.05220542 -33.63694551 -29.03989629 0 0 Z " fill="#010101" transform="translate(574.8125,467.0625)"/>
<path d="M0 0 C1.02112885 0.00149048 2.04225769 0.00298096 3.09432983 0.0045166 C18.134614 0.04405088 32.81340222 0.46721188 47.625 3.3125 C48.38296875 3.44640137 49.1409375 3.58030273 49.921875 3.71826172 C73.28344866 7.93008389 98.20104743 19.32242474 112.9375 38.5 C120.90969867 50.36559803 125.80278228 62.32896928 128.625 76.3125 C128.80141336 77.06412163 128.97782673 77.81574326 129.15958595 78.5901413 C129.71930263 81.8641069 129.75615522 84.97348962 129.76303101 88.29602051 C129.76585229 88.98688515 129.76867357 89.6777498 129.77158034 90.38954973 C129.77989427 92.69786234 129.78126181 95.00612679 129.78271484 97.31445312 C129.78738528 98.97208287 129.79252923 100.62971133 129.79811096 102.28733826 C129.80937539 105.85370259 129.8178174 109.42005864 129.82423019 112.98643494 C129.83492174 118.62546898 129.85516828 124.26444329 129.87734985 129.90344238 C129.93923987 145.93739089 129.99332221 161.97133525 130.02636719 178.00537109 C130.0447026 186.86325221 130.07362105 195.72103265 130.1143719 204.57883978 C130.13545244 209.26544053 130.15090073 213.9519144 130.15317917 218.63856506 C130.15532392 223.04468661 130.17117551 227.45054356 130.19756889 231.85658455 C130.20476874 233.47348128 130.20685953 235.09041005 130.20346642 236.70731926 C130.19957374 238.91485309 130.2140183 241.12154095 130.23300171 243.32897949 C130.23796693 245.18172108 130.23796693 245.18172108 130.24303246 247.07189178 C130.76959631 251.53925344 132.25023291 254.19789292 135.73046875 257.01953125 C139.71296448 258.79848683 143.64297734 259.37897929 147.9375 260 C150.804375 260.433125 153.67125 260.86625 156.625 261.3125 C156.625 268.2425 156.625 275.1725 156.625 282.3125 C118.345 282.3125 80.065 282.3125 40.625 282.3125 C40.295 269.1125 39.965 255.9125 39.625 242.3125 C37.645 245.6125 35.665 248.9125 33.625 252.3125 C30.1987911 256.55329747 26.44924693 260.43322794 22.625 264.3125 C21.96628906 264.98410156 21.30757812 265.65570312 20.62890625 266.34765625 C1.06726388 284.81552937 -27.05246081 289.36585866 -52.87890625 288.72265625 C-74.96713278 287.6590873 -95.43352613 281.78171578 -112.375 267.3125 C-113.03886719 266.76078125 -113.70273438 266.2090625 -114.38671875 265.640625 C-125.83876472 255.24371136 -132.45320036 239.06279194 -133.55224609 223.86083984 C-134.43470495 204.04088831 -131.8466255 186.37555741 -118.625 170.75 C-96.23656537 146.49586248 -64.44283528 136.99697149 -33.375 129.3125 C-32.44800293 129.08320801 -31.52100586 128.85391602 -30.56591797 128.61767578 C-17.47245248 125.44692089 -4.2231343 123.18843323 9.0625 121 C9.87490143 120.86471893 10.68730286 120.72943787 11.52432251 120.59005737 C13.86792836 120.20223062 16.21288121 119.82407012 18.55859375 119.44921875 C19.25360992 119.3338678 19.9486261 119.21851685 20.66470337 119.09967041 C25.38630975 118.36188153 29.86420121 118.21574796 34.625 118.3125 C34.54024464 110.77513124 34.44522825 103.23794928 34.33747292 95.70087528 C34.28774068 92.20028124 34.24141081 88.69971404 34.203125 85.19897461 C34.15885311 81.1650175 34.09930023 77.13140678 34.0390625 73.09765625 C34.02173569 71.23150414 34.02173569 71.23150414 34.00405884 69.32765198 C33.89222877 62.68334214 33.34430366 56.7359866 31.625 50.3125 C31.39039062 49.43078125 31.15578125 48.5490625 30.9140625 47.640625 C29.46090471 43.09309592 27.82414475 39.9529061 24.625 36.3125 C24.625 35.6525 24.625 34.9925 24.625 34.3125 C24.04234375 34.02375 23.4596875 33.735 22.859375 33.4375 C21.48614315 32.74608256 20.1196909 32.04073713 18.765625 31.3125 C18.14171875 30.9825 17.5178125 30.6525 16.875 30.3125 C16.26140625 29.9825 15.6478125 29.6525 15.015625 29.3125 C0.27326985 23.1457632 -18.6409606 24.67271097 -33.36328125 30.0234375 C-35.73662751 31.03926664 -38.06594282 32.15797141 -40.375 33.3125 C-40.705 52.4525 -41.035 71.5925 -41.375 91.3125 C-65.135 91.3125 -88.895 91.3125 -113.375 91.3125 C-113.74625 81.969375 -114.1175 72.62625 -114.5 63 C-114.66387207 60.07213623 -114.82774414 57.14427246 -114.99658203 54.12768555 C-115.57990412 36.32272731 -115.57990412 36.32272731 -111.70223999 31.02877808 C-107.50729211 27.28753747 -102.75852593 25.07674118 -97.52844238 23.1232605 C-94.91886389 22.14076699 -92.55405253 20.84997833 -90.12890625 19.48046875 C-88.73852286 18.8062079 -87.34149228 18.14544507 -85.9375 17.5 C-85.16003418 17.13874023 -84.38256836 16.77748047 -83.58154297 16.40527344 C-71.68682124 11.03531465 -59.21053251 7.65164022 -46.5625 4.5625 C-45.75184082 4.36366211 -44.94118164 4.16482422 -44.10595703 3.95996094 C-29.34892495 0.51379643 -15.08573852 -0.05411488 0 0 Z " fill="#010101" transform="translate(2912.375,538.6875)"/>
<path d="M0 0 C1.31733627 -0.00855011 1.31733627 -0.00855011 2.6612854 -0.01727295 C4.51522641 -0.02667288 6.36918374 -0.03323687 8.22314453 -0.03710938 C10.99673469 -0.04672821 13.76955464 -0.07776351 16.54296875 -0.109375 C47.73021472 -0.2936246 78.283821 8.25981301 102.6640625 28.203125 C103.25832031 28.66203125 103.85257813 29.1209375 104.46484375 29.59375 C130.18563483 50.17038287 142.21165223 85.98354768 145.8515625 117.515625 C145.93583496 118.22565674 146.02010742 118.93568848 146.10693359 119.66723633 C146.94584314 127.90984105 146.6640625 135.79319658 146.6640625 144.203125 C85.9440625 144.203125 25.2240625 144.203125 -37.3359375 144.203125 C-36.84635461 164.76168019 -36.84635461 164.76168019 -34.7109375 185.078125 C-34.54126465 186.17833984 -34.3715918 187.27855469 -34.19677734 188.41210938 C-30.34381888 211.48315765 -21.59032379 233.78863909 -2.3359375 248.203125 C16.84998202 259.93290518 39.95891577 261.2042663 61.6640625 256.203125 C64.45742478 255.33063222 67.07827538 254.25608406 69.7265625 253.015625 C70.40283691 252.70737793 71.07911133 252.39913086 71.77587891 252.08154297 C82.08344814 247.26677482 90.46402474 241.06035182 98.6640625 233.203125 C99.35242187 232.57792969 100.04078125 231.95273437 100.75 231.30859375 C108.58797927 223.95080688 114.61137782 214.64944854 119.6640625 205.203125 C124.92620211 206.86929345 129.05565837 210.13380869 133.4765625 213.328125 C134.65895508 214.17310547 134.65895508 214.17310547 135.86523438 215.03515625 C137.80153081 216.41990158 139.73428891 217.80931127 141.6640625 219.203125 C138.0463605 228.98496972 131.37112169 237.33682101 124.6640625 245.203125 C123.84035156 246.17378906 123.01664063 247.14445313 122.16796875 248.14453125 C101.52169977 271.88602736 71.1904729 285.23354231 40.06640625 287.8828125 C18.91087527 289.30646869 -1.53657684 288.44170871 -22.3359375 284.203125 C-23.24408203 284.02120605 -24.15222656 283.83928711 -25.08789062 283.65185547 C-49.3048232 278.63728338 -71.3058824 267.93044326 -90.3359375 252.203125 C-91.49222656 251.25953125 -91.49222656 251.25953125 -92.671875 250.296875 C-118.64880459 228.40061251 -131.77722912 195.50282153 -135.15066528 162.39950562 C-135.64132168 156.58283099 -135.66897034 150.75530218 -135.65161133 144.92138672 C-135.64843819 142.70360608 -135.67209318 140.48715015 -135.69726562 138.26953125 C-135.74108851 128.25524268 -134.50126474 118.96819069 -132.3359375 109.203125 C-132.16811768 108.38005859 -132.00029785 107.55699219 -131.82739258 106.70898438 C-127.3576487 85.01765791 -116.44426861 65.11124895 -102.3359375 48.203125 C-101.16611328 46.78580078 -101.16611328 46.78580078 -99.97265625 45.33984375 C-75.95094655 17.54385561 -36.60614661 0.18950395 0 0 Z " fill="#010101" transform="translate(1505.3359375,538.796875)"/>
<path d="M0 0 C1.485 -0.01160156 1.485 -0.01160156 3 -0.0234375 C3.97710938 -0.02085937 4.95421875 -0.01828125 5.9609375 -0.015625 C6.83282715 -0.01336914 7.7047168 -0.01111328 8.60302734 -0.00878906 C12.66560224 0.33911281 16.64465182 1.36547818 20.625 2.25 C20.625 28.65 20.625 55.05 20.625 82.25 C9.625 81.25 9.625 81.25 6.37866211 80.70239258 C1.07744599 79.83146843 -4.31438535 79.98493556 -9.67553711 79.95483398 C-11.0841687 79.94340786 -12.49276029 79.92310758 -13.90112305 79.89331055 C-27.36507453 79.60954188 -39.69031342 81.63766765 -51.75 88.0625 C-52.41136963 88.40289307 -53.07273926 88.74328613 -53.75415039 89.09399414 C-59.45990962 92.11436111 -64.79113463 95.66613463 -69.375 100.25 C-69.47831993 102.25760813 -69.51022788 104.2689013 -69.51544189 106.27915955 C-69.52115204 107.59025192 -69.52686218 108.9013443 -69.53274536 110.25216675 C-69.53399085 111.71881094 -69.53511591 113.18545524 -69.53613281 114.65209961 C-69.54075851 116.18592957 -69.54578283 117.71975837 -69.55117798 119.25358582 C-69.56432694 123.43121316 -69.57075164 127.60882441 -69.57518864 131.78646922 C-69.57811501 134.39344613 -69.58221895 137.00041859 -69.58669281 139.60739326 C-69.60037358 147.75525675 -69.61003771 155.90311014 -69.6138947 164.05098432 C-69.61837871 173.47299191 -69.63594004 182.89485465 -69.6648953 192.31681818 C-69.68647223 199.58899929 -69.69659682 206.86113954 -69.69793582 214.13335234 C-69.69898661 218.48180515 -69.70495238 222.83012192 -69.72275543 227.17854118 C-69.73916769 231.2669178 -69.74142526 235.35505513 -69.73261642 239.44345284 C-69.73184238 240.94713606 -69.73623671 242.45083179 -69.74607468 243.95448303 C-69.75868255 246.00090247 -69.75116672 248.04741692 -69.74249268 250.09385681 C-69.74395924 251.24111205 -69.7454258 252.38836729 -69.7469368 253.57038784 C-69.62419765 254.45465985 -69.50145851 255.33893187 -69.375 256.25 C-62.55148916 260.79900722 -51.80076091 259.54283541 -43.8125 259.8125 C-42.61302734 259.85568359 -41.41355469 259.89886719 -40.17773438 259.94335938 C-37.24359543 260.04856754 -34.30931082 260.14969992 -31.375 260.25 C-31.375 267.18 -31.375 274.11 -31.375 281.25 C-85.495 281.25 -139.615 281.25 -195.375 281.25 C-195.375 274.32 -195.375 267.39 -195.375 260.25 C-193.415625 260.146875 -191.45625 260.04375 -189.4375 259.9375 C-179.52081146 259.22359181 -179.52081146 259.22359181 -171.28827 254.22390747 C-168.78774834 250.33720039 -168.815088 247.03138521 -168.8603363 242.55810547 C-168.84991801 241.24616872 -168.84991801 241.24616872 -168.83928925 239.9077282 C-168.82099425 236.9772885 -168.8312905 234.04765608 -168.84155273 231.1171875 C-168.83449558 229.01620884 -168.82575143 226.91523526 -168.81544495 224.81427002 C-168.79291974 219.10771768 -168.79589789 213.40144227 -168.80476642 207.69486237 C-168.80987153 202.93317463 -168.80258769 198.17153915 -168.79529434 193.4098568 C-168.77828573 182.17879048 -168.78187136 170.94786 -168.79858398 159.71679688 C-168.81551221 148.12358103 -168.79966308 136.53074151 -168.7673611 124.93756676 C-168.74068827 114.98839719 -168.73338281 105.03934494 -168.74187618 95.0901432 C-168.74681138 89.14592766 -168.7445574 83.20193868 -168.72408867 77.25775146 C-168.70576757 71.6696371 -168.71164687 66.0820654 -168.73628807 60.49398041 C-168.741307 58.44168114 -168.73777829 56.38934077 -168.72513962 54.33707428 C-168.70926403 51.53805278 -168.72410776 48.74083033 -168.74681091 45.94189453 C-168.73497518 45.1272064 -168.72313946 44.31251827 -168.71094507 43.47314262 C-168.77765454 39.43300311 -169.16903278 37.5101666 -171.70771885 34.30343628 C-174.79050393 31.93011964 -177.56677676 30.7411737 -181.25 29.5 C-182.42304687 29.09265625 -183.59609375 28.6853125 -184.8046875 28.265625 C-188.89609881 27.01504033 -188.89609881 27.01504033 -195.375 26.25 C-195.375 18.99 -195.375 11.73 -195.375 4.25 C-156.105 4.25 -116.835 4.25 -76.375 4.25 C-76.045 27.35 -75.715 50.45 -75.375 74.25 C-72.405 66.99 -69.435 59.73 -66.375 52.25 C-54.83108041 28.98456206 -40.20137045 10.12356186 -15.19140625 1.1015625 C-10.085291 -0.0377754 -5.21447013 -0.04042225 0 0 Z " fill="#000000" transform="translate(1874.375,539.75)"/>
<path d="M0 0 C41.58 0 83.16 0 126 0 C126.04898437 17.78390625 126.09796875 35.5678125 126.1484375 53.890625 C126.18380535 65.12891123 126.21967295 76.36719215 126.2578125 87.60546875 C126.27782117 93.50699819 126.29770573 99.40852803 126.31738281 105.31005859 C126.31985425 106.04974054 126.32232569 106.78942249 126.32487202 107.55151904 C126.3646138 119.50010853 126.39734604 131.4487075 126.42749982 143.39732459 C126.45859104 155.65574696 126.49719042 167.91412902 126.54279006 180.17250609 C126.57070004 187.73930402 126.59272216 195.3060724 126.60726251 202.87290803 C126.61903027 208.67078472 126.64123363 214.4685848 126.66738319 220.26641273 C126.67647822 222.64808151 126.68215366 225.02976609 126.68421364 227.41145134 C126.68752256 230.65504885 126.702963 233.898366 126.7215271 237.14190674 C126.718625 238.56602603 126.718625 238.56602603 126.71566427 240.01891541 C126.72312976 240.88727832 126.73059525 241.75564122 126.73828697 242.65031815 C126.74056529 243.39912664 126.74284362 244.14793513 126.74519098 244.91943479 C127.04009078 247.32734903 127.75384918 248.92864435 129 251 C135.86778681 256.16313328 144.83193414 255.70565528 153 256 C153 262.93 153 269.86 153 277 C102.84 277 52.68 277 1 277 C1 270.4 1 263.8 1 257 C9.625 255.75 9.625 255.75 12.30712891 255.38574219 C17.3819147 254.59305676 21.01549465 253.45732464 25 250 C27.37495362 245.62852049 27.28615376 241.28028672 27.26742554 236.4287262 C27.27195665 235.56705792 27.27648776 234.70538964 27.28115618 233.8176102 C27.2938135 230.931168 27.29217896 228.04491415 27.29052734 225.15844727 C27.29651168 223.08865109 27.30331701 221.01885716 27.31088257 218.94906616 C27.32855752 213.32722592 27.33323853 207.70544655 27.33451414 202.08358121 C27.33641293 197.39158959 27.34377009 192.69961216 27.35085833 188.007626 C27.36714492 176.93956562 27.37202697 165.87153778 27.37060547 154.8034668 C27.36940337 143.38187839 27.39051834 131.96047874 27.4220928 120.53893811 C27.44823076 110.73499396 27.45897383 100.93111157 27.45769465 91.12713283 C27.45718437 85.27065232 27.4629045 79.4143396 27.48405075 73.55789375 C27.50339172 68.05111804 27.50358587 62.54467095 27.48901749 57.03788376 C27.48692328 55.01663547 27.49166657 52.99536684 27.5037384 50.97415352 C27.51914996 48.21513354 27.50990992 45.45725249 27.49447632 42.69825745 C27.50476344 41.898155 27.51505057 41.09805256 27.52564943 40.27370459 C27.46144581 35.08120848 26.43371694 32.11980748 23 28 C20.62853562 26.5200897 20.62853562 26.5200897 17.9375 25.75 C16.97972656 25.43933594 16.02195312 25.12867188 15.03515625 24.80859375 C11.09350683 23.75850182 7.14878428 23.00555229 3.1171875 22.39453125 C1 22 1 22 0 21 C0 14.07 0 7.14 0 0 Z " fill="#000000" transform="translate(1920,544)"/>
<path d="M0 0 C1.32029303 1.09126261 2.61086598 2.21914838 3.875 3.375 C4.60460938 4.03886719 5.33421875 4.70273437 6.0859375 5.38671875 C32.17032436 31.60464343 31.1860168 79.62473427 31.12081909 113.68411255 C30.98057703 139.81051248 30.36336644 168.74038935 20.875 193.375 C20.32199219 194.90060547 20.32199219 194.90060547 19.7578125 196.45703125 C17.03544589 203.52984645 13.46190456 209.36648821 8.875 215.375 C8.25625 216.2825 7.6375 217.19 7 218.125 C3.72040601 221.59751128 -0.01387352 223.97793744 -4.125 226.375 C-4.80820313 226.79394531 -5.49140625 227.21289062 -6.1953125 227.64453125 C-12.16268273 230.67099321 -18.12763989 230.75888027 -24.6875 230.8125 C-26.0173291 230.82772705 -26.0173291 230.82772705 -27.37402344 230.84326172 C-39.43178604 230.68431238 -48.33227179 225.89336909 -57.1875 217.9375 C-82.51671005 191.29902661 -80.54439659 143.83432732 -80.4375 110.125 C-80.43567719 108.92531586 -80.43385437 107.72563171 -80.43197632 106.48959351 C-80.23850983 30.73454406 -80.23850983 30.73454406 -55.9375 4.5 C-41.27994393 -9.32788308 -16.65568368 -11.42846132 0 0 Z " fill="#FEFEFE" transform="translate(1207.125,570.625)"/>
<path d="M0 0 C1.81864311 -0.00639748 1.81864311 -0.00639748 3.67402649 -0.01292419 C5.02513126 -0.01257463 6.376236 -0.01211307 7.7273407 -0.0115509 C9.14494923 -0.01454202 10.56255694 -0.01794444 11.98016357 -0.02172852 C15.84030338 -0.03058525 19.70042102 -0.03290755 23.56057 -0.0335443 C25.97583958 -0.03425475 28.39110351 -0.03638914 30.80637169 -0.03904152 C39.24389885 -0.04830588 47.68141019 -0.05237572 56.11894226 -0.05158997 C63.96221234 -0.05099136 71.80541315 -0.06149756 79.64866573 -0.07733363 C86.39365501 -0.09046271 93.13862184 -0.0957715 99.88362378 -0.09513456 C103.90653391 -0.09488081 107.92938272 -0.09766242 111.95228004 -0.10831261 C115.74683182 -0.11808222 119.54126488 -0.11801287 123.33582115 -0.11079597 C125.3717698 -0.10927157 127.40771865 -0.1175378 129.44364929 -0.12623596 C141.81013951 -0.08452038 155.51728594 0.05907429 165.18315125 8.84074402 C170.96743031 15.23829605 171.76869753 20.99785016 171.6089325 29.50090027 C170.77543689 39.43873245 166.35643071 47.18855854 159.304245 54.13371277 C148.34748223 62.85758076 134.92612245 67.59547473 121.304245 70.13371277 C120.31811218 70.32707214 119.33197937 70.52043152 118.31596375 70.71965027 C102.99406175 73.52020984 87.44874485 73.37490784 71.929245 73.38371277 C70.32652237 73.38472488 70.32652237 73.38472488 68.69142151 73.38575745 C10.05156324 73.32688816 10.05156324 73.32688816 -9.633255 54.75871277 C-17.84675835 46.04564035 -19.25811439 37.1191132 -19.039505 25.54386902 C-18.56219858 16.2861132 -13.96690817 7.84623742 -7.695755 1.13371277 C-5.02548551 -0.20142198 -2.99135763 0.00473856 0 0 Z " fill="#FDFDFD" transform="translate(2518.695755004883,851.8662872314453)"/>
<path d="M0 0 C13.07175338 10.68603413 17.27599459 27.27152192 19.23828125 43.390625 C21.73571005 69.21060314 23.54464238 104.73639817 7.328125 126.6328125 C1.26767424 133.73816856 -5.50361183 137.89036075 -14.91796875 138.875 C-22.53882353 139.1038545 -28.80431727 138.73087372 -35.2578125 134.4921875 C-36.28455078 133.83283203 -36.28455078 133.83283203 -37.33203125 133.16015625 C-47.6639325 125.38663055 -52.19883913 110.77707704 -54.2578125 98.4921875 C-55.54857336 89.0511641 -55.44397239 79.53257315 -55.44311523 70.02416992 C-55.44529383 67.32779962 -55.46348409 64.63184478 -55.48242188 61.93554688 C-55.55011635 41.40504893 -54.49853546 19.21042166 -40.06640625 3.12890625 C-28.48291407 -7.35377889 -13.15168801 -8.7829612 0 0 Z " fill="#FDFDFD" transform="translate(2610.2578125,569.5078125)"/>
<path d="M0 0 C1.02609375 0.32871094 2.0521875 0.65742188 3.109375 0.99609375 C13.83131886 4.92838027 23.05843421 12.5460605 28 23 C32.56200314 36.4778572 32.24479838 49.06850249 26.5 61.9375 C21.14732815 72.2021879 12.78841926 78.24686642 2 82 C1.10667969 82.31839844 0.21335937 82.63679688 -0.70703125 82.96484375 C-16.84479029 87.65278714 -36.70779099 87.22478863 -51.74609375 79.609375 C-54.26732922 78.18579479 -56.63241714 76.66483742 -59 75 C-59.64710937 74.54882812 -60.29421875 74.09765625 -60.9609375 73.6328125 C-69.0556185 67.376225 -73.45523795 57.95797026 -75 48 C-76.06627319 35.83658734 -74.70030201 24.43748973 -66.6796875 14.80078125 C-49.64569776 -3.46124031 -23.29274158 -7.53050677 0 0 Z " fill="#010101" transform="translate(2018,419)"/>
<path d="M0 0 C12.5281631 7.55528499 18.47723465 18.70691545 22.06640625 32.55273438 C24.04225341 41.0551003 25.07426683 49.71152837 26.0625 58.375 C26.19043945 59.47223389 26.31837891 60.56946777 26.45019531 61.69995117 C27.52502118 72.1007837 27.3125 81.8687371 27.3125 92.5 C-3.7075 92.5 -34.7275 92.5 -66.6875 92.5 C-66.6875 84.71956576 -66.47179105 77.73567826 -65.5 70.125 C-65.36835449 69.09205811 -65.23670898 68.05911621 -65.10107422 66.99487305 C-62.13816497 45.14383488 -57.10609166 19.70269997 -39.6875 4.5 C-28.0510929 -3.83148302 -13.27104352 -6.09025133 0 0 Z " fill="#FCFCFC" transform="translate(1534.6875,566.5)"/>
<path d="M0 0 C0.18615542 10.22314061 0.32790644 20.44587174 0.41449738 30.67036819 C0.45607807 35.41920499 0.51238633 40.16687415 0.60351562 44.91503906 C0.69106237 49.50577854 0.73840256 54.09540209 0.75901794 58.68691254 C0.77368994 60.42997537 0.80234027 62.17298377 0.84584045 63.91556549 C1.12998937 75.78073469 -0.01193269 82.73211112 -8 92 C-8.69492554 92.86578674 -9.38985107 93.73157349 -10.10583496 94.62359619 C-14.38662554 99.88535967 -19.08370249 103.71205763 -25 107 C-25.70125 107.41378906 -26.4025 107.82757812 -27.125 108.25390625 C-35.89777164 112.62506156 -47.94429931 112.76323505 -57.2734375 110.046875 C-61.96441465 107.82112608 -65.66181589 105.00582093 -69 101 C-69.42925781 100.48695313 -69.85851563 99.97390625 -70.30078125 99.4453125 C-77.24770133 90.5516154 -78.17397181 80.11637616 -78.125 69.1875 C-78.12886719 68.33607422 -78.13273437 67.48464844 -78.13671875 66.60742188 C-78.11271578 50.84947014 -74.48540594 36.81488335 -63.5 24.9375 C-47.52171149 9.92943015 -21.95937979 0 0 0 Z " fill="#FDFDFD" transform="translate(2947,679)"/>
</svg>
